<svg id="_ÎÓÈ_1" data-name="—ÎÓÈ_1" xmlns="http://www.w3.org/2000/svg" xmlns:xlink="http://www.w3.org/1999/xlink" viewBox="0 0 234.47 561.56"><defs><style>.cls-1{fill:#a2d6c4;}.cls-2{fill:#5dc3c3;}.cls-3{fill:url(#_ÂÁ_Ï_ÌÌ_È_ËÂÌÚ_2);}.cls-4{fill:url(#_ÂÁ_Ï_ÌÌ_È_ËÂÌÚ_2-2);}</style><linearGradient id="_ÂÁ_Ï_ÌÌ_È_ËÂÌÚ_2" y1="21.66" x2="201.45" y2="21.66" gradientUnits="userSpaceOnUse"><stop offset="0" stop-color="#ebf5f2"/><stop offset="1" stop-color="#b1e0e9"/></linearGradient><linearGradient id="_ÂÁ_Ï_ÌÌ_È_ËÂÌÚ_2-2" y1="82.59" x2="162.45" y2="82.59" xlink:href="#_ÂÁ_Ï_ÌÌ_È_ËÂÌÚ_2"/></defs><title>avion 2</title><polygon class="cls-1" points="187.33 43.33 209.94 87.8 162.45 76.96 0 25.77 187.33 43.33"/><polygon class="cls-2" points="209.94 87.8 129.27 82.79 149.04 72.73 209.94 87.8"/><polygon class="cls-3" points="187.33 43.33 201.45 0 0 25.77 187.33 43.33"/><polygon class="cls-4" points="0 25.77 162.45 76.96 138.24 139.42 0 25.77"/><path class="cls-2" d="M232.51,174.51a3.72,3.72,0,0,0,1.14-.89,3.79,3.79,0,0,0-.37-5.35,106.4,106.4,0,0,0-16-11.51,3.79,3.79,0,1,0-3.84,6.54A99.46,99.46,0,0,1,228.3,174,3.78,3.78,0,0,0,232.51,174.51Z" transform="translate(-40.38 -41.96)"/><path class="cls-2" d="M173.46,589.24a3.81,3.81,0,0,1,1.34-5.2,106.42,106.42,0,0,0,27.84-24.13,3.8,3.8,0,0,1,5.85,4.84,114.31,114.31,0,0,1-29.83,25.83l-.21.11A3.81,3.81,0,0,1,173.46,589.24Zm43.25-42.55a3.79,3.79,0,0,1-1.42-5.17A136,136,0,0,0,229.05,507a3.8,3.8,0,0,1,7.37,1.83,143.23,143.23,0,0,1-14.54,36.47,3.71,3.71,0,0,1-1.57,1.5A3.8,3.8,0,0,1,216.71,546.69ZM236,489a3.8,3.8,0,0,1-3.52-4.05l.1-1.71a175,175,0,0,0-1.86-35.67,3.79,3.79,0,1,1,7.5-1.14,182.93,182.93,0,0,1,1.94,37.22l-.11,1.84A3.79,3.79,0,0,1,236,489Zm-5.27-60.82a3.79,3.79,0,0,1-4.64-2.69,276.24,276.24,0,0,0-12.32-35.73,3.8,3.8,0,1,1,7-2.94,282.36,282.36,0,0,1,12.65,36.72,3.78,3.78,0,0,1-1.94,4.35A4,4,0,0,1,230.77,428.16Zm-21.34-57.41a3.78,3.78,0,0,1-5.07-1.73l-1.43-2.86q-6,2.34-12.27,4.09a3.79,3.79,0,1,1-2-7.31q5.51-1.53,10.83-3.58c-3.94-7.54-8.29-15.39-13.19-23.83a3.79,3.79,0,1,1,6.56-3.81c5.09,8.75,9.57,16.87,13.65,24.7a115.76,115.76,0,0,0,15.8-8.82,3.8,3.8,0,0,1,4.22,6.31,124,124,0,0,1-16.57,9.27c.42.83.83,1.66,1.24,2.49a3.8,3.8,0,0,1-1.69,5.06Zm30-31.93a3.79,3.79,0,0,1-.07-5.36,96.79,96.79,0,0,0,13.84-18,98.46,98.46,0,0,0,6.3-12.63,3.79,3.79,0,1,1,7,2.88,102.78,102.78,0,0,1-21.71,33,3.93,3.93,0,0,1-1,.74A3.82,3.82,0,0,1,239.41,338.82Zm-72,35.63a118.53,118.53,0,0,1-39.29-3.07,3.79,3.79,0,1,1,1.86-7.35,111,111,0,0,0,36.79,2.86,3.79,3.79,0,0,1,2,7.16A3.66,3.66,0,0,1,167.36,374.45Zm101.31-88.51a3.79,3.79,0,0,1-3.08-4.39,115,115,0,0,0,.34-37,3.8,3.8,0,0,1,7.51-1.12,122.85,122.85,0,0,1-.38,39.38,3.79,3.79,0,0,1-4.39,3.08ZM105.79,363a98.89,98.89,0,0,1-8.91-5.16,80.7,80.7,0,0,1-21.45-20.49,3.79,3.79,0,0,1,6.16-4.43A73.4,73.4,0,0,0,101,351.49a91.56,91.56,0,0,0,8.24,4.77,3.79,3.79,0,0,1,1.64,5.11,3.71,3.71,0,0,1-1.65,1.65A3.78,3.78,0,0,1,105.79,363Zm68.65-47c-8.15-12.65-15.6-21.84-23.44-28.91a3.8,3.8,0,0,1,5.08-5.64c8.35,7.53,16.21,17.21,24.75,30.44a3.81,3.81,0,0,1-1.14,5.25l-.34.19A3.78,3.78,0,0,1,174.44,316Zm91-90.69a3.79,3.79,0,0,1-4.82-2.36,122.33,122.33,0,0,0-6.6-15.58,114.9,114.9,0,0,0-10.67-17.13,3.8,3.8,0,0,1,6.07-4.56,123.78,123.78,0,0,1,11.37,18.25,129.26,129.26,0,0,1,7,16.56A3.79,3.79,0,0,1,266,225.1,4.25,4.25,0,0,1,265.47,225.31ZM69.54,318.21a3.79,3.79,0,0,1-4.6-2.76c-2.7-10.79-1.62-21.25,3.11-30.26a38.09,38.09,0,0,1,6.47-8.92A3.8,3.8,0,1,1,80,281.56a30.75,30.75,0,0,0-5.21,7.16c-3.9,7.44-4.73,15.81-2.46,24.89a3.8,3.8,0,0,1-2,4.3A3.66,3.66,0,0,1,69.54,318.21ZM133,274.87A54.28,54.28,0,0,0,98,271.57a3.79,3.79,0,1,1-1.86-7.35,61.2,61.2,0,0,1,40,3.76,3.79,3.79,0,0,1,1.85,5,3.74,3.74,0,0,1-1.72,1.79A3.82,3.82,0,0,1,133,274.87Z" transform="translate(-40.38 -41.96)"/><path class="cls-2" d="M157,600a3.8,3.8,0,0,0-2.76-7,81,81,0,0,1-17.84,3,3.79,3.79,0,1,0,.41,7.57,89.33,89.33,0,0,0,19.51-3.27A3.71,3.71,0,0,0,157,600Z" transform="translate(-40.38 -41.96)"/></svg>